[img]http://i.imgur.com/BX74ESR.jpg[/img]


[code]

Paranormal.Activity.4.2012.Unrated.Directors.Cut.480p.BDRip.XViD.AC3-26k

 
http://www.imdb.com/title/tt2109184/


Plot:

It has been five years since the disappearance of Katie and Hunter, and a suburban family witness strange 
events in their neighborhood when a woman and a mysterious child move in.


Sources - VIDEO: Paranormal Activity 4 Unrated Directors Cut BluRay REMUX 1080p AVC DTS-HD MA5.1-CHD ..... thanks .... :P
          AUDIO: Paranormal Activity 4 Unrated Directors Cut BluRay REMUX 1080p AVC DTS-HD MA5.1-CHD ..... thanks .... :P

 
Format                                   : AVI
Format/Info                              : Audio Video Interleave
File size                                : 1.70 GiB
Duration                                 : 1h 36mn
Overall bit rate                         : 2 519 Kbps

Video
ID                                       : 0
Format                                   : MPEG-4 Visual
Format profile                           : Advanced Simple@L5
Format settings, BVOP                    : 2
Format settings, QPel                    : No
Format settings, GMC                     : No warppoints
Format settings, Matrix                  : Default (H.263)
Codec ID                                 : XVID
Codec ID/Hint                            : XviD
Duration                                 : 1h 36mn
Bit rate                                 : 1 999 Kbps
Width                                    : 720 pixels
Height                                   : 400 pixels
Display aspect ratio                     : 16:9
Frame rate                               : 23.976 fps
Color space                              : YUV
Chroma subsampling                       : 4:2:0
Bit depth                                : 8 bits
Scan type                                : Progressive
Compression mode                         : Lossy
Bits/(Pixel*Frame)                       : 0.290
Stream size                              : 1.35 GiB (79%)
Writing library                          : XviD 1.2.1 (UTC 2008-12-04)

Audio
ID                                       : 1
Format                                   : AC-3
Format/Info                              : Audio Coding 3
Mode extension                           : CM (complete main)
Format settings, Endianness              : Big
Codec ID                                 : 2000
Duration                                 : 1h 36mn
Bit rate mode                            : Constant
Bit rate                                 : 512 Kbps
Channel(s)                               : 6 channels
Channel positions                        : Front: L C R, Side: L R, LFE
Sampling rate                            : 48.0 KHz
Bit depth                                : 16 bits
Compression mode                         : Lossy
Stream size                              : 354 MiB (20%)
Alignment                                : Aligned on interleaves
Interleave, duration                     : 64 ms (1.53 video frames)
Interleave, preload duration             : 192 ms
Title                                    : 512

Notes -

Took the BD made a script to make magic happen and this is the outcome.. enjoy

[/code]

Screens:

[img]http://i.imgur.com/qJRg04X.png[/img]
[img]http://i.imgur.com/hdo0ysZ.png[/img]
[img]http://i.imgur.com/K8Z7QqF.png[/img]
[img]http://i.imgur.com/Sd5edKC.png[/img]
[img]http://i.imgur.com/4jbHyKX.jpg[/img]
[img]http://imageshack.us/a/img833/8210/64901060.png[/img]
[img]http://imageshack.us/a/img42/6050/69267503.png[/img]
[img]http://imageshack.us/a/img96/3971/32907810.png[/img]
[img]http://imageshack.us/a/img217/654/46192118.png[/img]
[img]http://imageshack.us/a/img14/2849/53341253.png[/img]

Greetz:
SILENTHD|CM8|RX|VISION|HDSCENE|xTriLL|ADTRG|CRYS|REMIXHD|HS|Tommiecook
BIDA|RX|REFILL|INSPiRAL|AXED|HOPE|Anonymous|GooN|NOIR|Blackjesus|Gabroo Punjab Deh
|UNiQUE|RESiSTANCE|TRiNiTY|LEGION

To all the people who have helped me, you know who you are

Anything to offer email us @: 26k@hushmail.me 